<svg width="20" height="18" viewBox="0 0 20 18" fill="none" xmlns="http://www.w3.org/2000/svg">
<g id="heart">
<path id="Vector" d="M9.99995 16.2555C14.4003 13.3581 16.7082 10.7223 17.6547 8.51628C19.4319 4.37247 16.4058 1.74448 13.4213 1.74448C12.1479 1.74448 10.8816 2.22333 9.99995 3.26706C9.11812 2.22311 7.85225 1.74448 6.57856 1.74448C3.59432 1.74448 0.568156 4.37283 2.34525 8.51628C3.29172 10.7223 5.59955 13.3581 9.99995 16.2555ZM9.99996 18C9.64118 18 9.28241 17.8981 8.97294 17.6943C4.6685 14.8602 1.87361 11.9958 0.665909 9.18091C-0.338337 6.83942 -0.20303 4.56269 1.04682 2.76992C2.23797 1.06137 4.3576 0 6.57856 0C7.82288 0 9.00523 0.336523 9.99996 0.953151C10.9947 0.336525 12.177 0 13.4213 0C15.6425 0 17.7622 1.06133 18.9533 2.7698C20.2031 4.5625 20.3383 6.83927 19.3341 9.18071C18.1263 11.9958 15.3314 14.8602 11.027 17.6943C10.7175 17.8981 10.3587 18 9.99996 18Z" fill="#D65B5B"/>
</g>
</svg>
