<?xml version="1.0" encoding="utf-8"?>
<!-- Generator: Adobe Illustrator 27.6.1, SVG Export Plug-In . SVG Version: 6.00 Build 0)  -->
<svg version="1.1" id="Layer_1" xmlns="http://www.w3.org/2000/svg" xmlns:xlink="http://www.w3.org/1999/xlink" x="0px" y="0px"
	 viewBox="0 0 20 18" style="enable-background:new 0 0 20 18;" xml:space="preserve">
<style type="text/css">
	.st0{fill:#D65B5B;}
</style>
<path class="st0" d="M19,2.8C17.8,1.1,15.6,0,13.4,0C12.2,0,11,0.3,10,1C9,0.3,7.8,0,6.6,0C4.4,0,2.2,1.1,1,2.8
	c-1.2,1.8-1.4,4.1-0.4,6.4c1.2,2.8,4,5.7,8.3,8.5c0.3,0.2,0.7,0.3,1,0.3s0.7-0.1,1-0.3c4.3-2.8,7.1-5.7,8.3-8.5
	C20.3,6.8,20.2,4.6,19,2.8z"/>
</svg>
