<svg width="10" height="10" viewBox="0 0 10 10" fill="none" xmlns="http://www.w3.org/2000/svg">
<path id="Close" opacity="0.41" d="M6.18673 5L9.75928 1.42745C10.0841 1.10267 10.0841 0.568361 9.75928 0.243583C9.4345 -0.0811944 8.90019 -0.0811944 8.57542 0.243583L5.00286 3.81613L1.43031 0.243584C1.10554 -0.0811934 0.571225 -0.0811934 0.246448 0.243584C0.0840588 0.405973 0.000245094 0.620745 0.000245094 0.835516C0.000245094 1.05029 0.0840588 1.26506 0.246448 1.42745L3.819 5L0.246447 8.57255C0.0840578 8.73494 0.000244141 8.94971 0.000244141 9.16448C0.000244141 9.37926 0.0840578 9.59403 0.246447 9.75642C0.571224 10.0812 1.10554 10.0812 1.43031 9.75642L5.00286 6.18387L8.57541 9.75642C8.90019 10.0812 9.4345 10.0812 9.75928 9.75642C10.0841 9.43164 10.0841 8.89733 9.75928 8.57255L6.18673 5Z" fill="#0042E0"/>
</svg>
