<svg width="17" height="17" viewBox="0 0 17 17" fill="none" xmlns="http://www.w3.org/2000/svg">
<g id="vuesax/linear/eye-slash">
<g id="eye-slash">
<path id="Vector" d="M9.99713 6.80087L6.6636 10.1344C6.23538 9.70618 5.97186 9.11985 5.97186 8.46764C5.97186 7.16321 7.02594 6.10913 8.33037 6.10913C8.98258 6.10913 9.56891 6.37265 9.99713 6.80087Z" stroke="#1F1F1F" stroke-width="0.988201" stroke-linecap="round" stroke-linejoin="round"/>
<path id="Vector_2" d="M12.1646 4.36324C11.0117 3.49362 9.69411 3.01929 8.3304 3.01929C6.00483 3.01929 3.83738 4.38959 2.32872 6.76127C1.7358 7.69018 1.7358 9.25154 2.32872 10.1804C2.84918 10.9974 3.45527 11.7023 4.11407 12.2688" stroke="#1F1F1F" stroke-width="0.988201" stroke-linecap="round" stroke-linejoin="round"/>
<path id="Vector_3" d="M5.97186 13.4285C6.7229 13.7447 7.52004 13.916 8.33037 13.916C10.6559 13.916 12.8234 12.5457 14.332 10.174C14.925 9.24508 14.925 7.68372 14.332 6.75481C14.1146 6.41224 13.8775 6.08943 13.6337 5.78638" stroke="#1F1F1F" stroke-width="0.988201" stroke-linecap="round" stroke-linejoin="round"/>
<path id="Vector_4" d="M10.643 8.92883C10.4717 9.85774 9.71413 10.6154 8.78522 10.7867" stroke="#1F1F1F" stroke-width="0.988201" stroke-linecap="round" stroke-linejoin="round"/>
<path id="Vector_5" d="M6.66361 10.1343L1.74237 15.0555" stroke="#1F1F1F" stroke-width="0.988201" stroke-linecap="round" stroke-linejoin="round"/>
<path id="Vector_6" d="M14.9186 1.87964L9.99731 6.80088" stroke="#1F1F1F" stroke-width="0.988201" stroke-linecap="round" stroke-linejoin="round"/>
</g>
</g>
</svg>
