<svg width="27" height="23" viewBox="0 0 27 23" fill="none" xmlns="http://www.w3.org/2000/svg">
<g id="Buy">
<path id="Stroke 1" fill-rule="evenodd" clip-rule="evenodd" d="M7.59384 20.1237C8.13875 20.1237 8.58166 20.5238 8.58166 21.0162C8.58166 21.5085 8.13875 21.9075 7.59384 21.9075C7.04893 21.9075 6.60732 21.5085 6.60732 21.0162C6.60732 20.5238 7.04893 20.1237 7.59384 20.1237Z" stroke="#393F42" stroke-width="1.5" stroke-linecap="round" stroke-linejoin="round"/>
<path id="Stroke 3" fill-rule="evenodd" clip-rule="evenodd" d="M22.1236 20.1237C22.6685 20.1237 23.1115 20.5238 23.1115 21.0162C23.1115 21.5085 22.6685 21.9075 22.1236 21.9075C21.5787 21.9075 21.1358 21.5085 21.1358 21.0162C21.1358 20.5238 21.5787 20.1237 22.1236 20.1237Z" stroke="#393F42" stroke-width="1.5" stroke-linecap="round" stroke-linejoin="round"/>
<path id="Stroke 5" d="M1.56055 0.791656L4.24637 1.21166L5.48986 14.5968C5.59058 15.6877 6.59905 16.5253 7.81026 16.5253H21.9005C23.0575 16.5253 24.0388 15.7577 24.2054 14.7217L25.4308 7.07066C25.5819 6.12682 24.7723 5.28216 23.7173 5.28216H4.67765" stroke="#393F42" stroke-width="1.5" stroke-linecap="round" stroke-linejoin="round"/>
<path id="Stroke 7" d="M16.2493 9.59417H19.83" stroke="#393F42" stroke-width="1.5" stroke-linecap="round" stroke-linejoin="round"/>
</g>
</svg>
