<svg width="24" height="24" viewBox="0 0 24 24" fill="none" xmlns="http://www.w3.org/2000/svg">
<rect opacity="0.01" width="24" height="24" fill="white"/>
<path d="M15.3457 5.67287C15.3457 7.70133 13.7013 9.34573 11.6729 9.34573C9.6444 9.34573 8 7.70133 8 5.67287C8 3.6444 9.6444 2 11.6729 2C13.7013 2 15.3457 3.6444 15.3457 5.67287Z" stroke="#004CFF" stroke-width="2"/>
<g clip-path="url(#clip0_998_195)">
<path d="M21.921 22.0641V17.6731C21.879 16.3935 21.331 15.1828 20.3974 14.3067C19.4637 13.4306 18.2207 12.9607 16.941 13.0001H6.98C5.7003 12.9607 4.45725 13.4306 3.52362 14.3067C2.58999 15.1828 2.04204 16.3935 2 17.6731V22.0641" stroke="#004CFF" stroke-width="2"/>
</g>
<defs>
<clipPath id="clip0_998_195">
<rect width="21.921" height="10.064" fill="white" transform="translate(1 12)"/>
</clipPath>
</defs>
</svg>
